# xmcd
#
# Track frame offsets: 
#        150
#        16180
#        28212
#        41507
#        54192
#        66150
#        79852
#        95905
#        110945
#        126230
#        137642
#        152890
#        166067
#        178635
#        198687
#        210462
#        226960
#        239205
#        255745
#        275947
#        304432
#
# Disc length: 4440 seconds
#
# Revision: 3
# Processed by: cddbd v1.5.2PL0 Copyright (c) Steve Scherf et al.
# Submitted via: ExactAudioCopy v1.1
#
DISCID=3e115615
DTITLE=Avex Trax - Velfarre Cyber Trance Request Countdown
DYEAR=2004
DGENRE=Trance
TTITLE0=System F - Spread Your Wings
TTITLE1=Vengaboys - Kiss (Airscape Remix)
TTITLE2=System F - Exhale
TTITLE3=Sean and Kim - Sunshine (Wippenberg Remix)
TTITLE4=DJ Sammy and Yanou, Feat. Do - Heaven
TTITLE5=Dogma - In the Club (Original Trance Mix)
TTITLE6=Gouryella - Tenshi
TTITLE7=Micro Tools - Triomphe De L'Amour
TTITLE8=DJ Shinkawa vs. Feture Breeze - The Moon (Club Mix)
TTITLE9=Rank 1 - Airwave 2003 (Breathing)
TTITLE10=Angels - Angels Theme (G-Aria) (Cyber Trance Mix)
TTITLE11=System F - Together
TTITLE12=Yoji Biomehanika - Hardstyle Disco
TTITLE13=Svenson and Gielen - The Beauty Of Silence (Pump Mix)
TTITLE14=Airscape - L'Esperanza (Svenson Goes To The Love Parade Mix)
TTITLE15=Yoji Biomehanika - Look @ The Heaven (Dance Valley Remix)
TTITLE16=Groove Coverage - Moonlight Shadow (Club Mix)
TTITLE17=System F - Out Of The Blue
TTITLE18=Gouryella - Ligaya (Vocal Version)
TTITLE19=Barthezz - Infected
TTITLE20=data
EXTD=YEAR: 2004
EXTT0=
EXTT1=
EXTT2=
EXTT3=
EXTT4=
EXTT5=
EXTT6=
EXTT7=
EXTT8=
EXTT9=
EXTT10=
EXTT11=
EXTT12=
EXTT13=
EXTT14=
EXTT15=
EXTT16=
EXTT17=
EXTT18=
EXTT19=
EXTT20=
PLAYORDER=
